<mxfile host="Electron" modified="2024-03-21T18:50:04.254Z" agent="Mozilla/5.0 (Windows NT 10.0; Win64; x64) AppleWebKit/537.36 (KHTML, like Gecko) draw.io/23.1.5 Chrome/120.0.6099.109 Electron/28.1.0 Safari/537.36" etag="dkItnHV-aGY7tyWWVOR7" version="23.1.5" type="device">
  <diagram name="Page-1" id="Uu5Oel6n3zRCmvDa_RyH">
    <mxGraphModel dx="1500" dy="887" grid="1" gridSize="10" guides="1" tooltips="1" connect="1" arrows="1" fold="1" page="1" pageScale="1" pageWidth="850" pageHeight="1100" math="0" shadow="0">
      <root>
        <mxCell id="0" />
        <mxCell id="1" parent="0" />
        <mxCell id="62VbcutX-p3DtVlxZNno-1" value="Context" style="swimlane;fontStyle=1;align=center;verticalAlign=top;childLayout=stackLayout;horizontal=1;startSize=26;horizontalStack=0;resizeParent=1;resizeParentMax=0;resizeLast=0;collapsible=1;marginBottom=0;whiteSpace=wrap;html=1;" vertex="1" parent="1">
          <mxGeometry x="70" y="190" width="160" height="216" as="geometry" />
        </mxCell>
        <mxCell id="62VbcutX-p3DtVlxZNno-2" value="input : String" style="text;strokeColor=none;fillColor=none;align=left;verticalAlign=top;spacingLeft=4;spacingRight=4;overflow=hidden;rotatable=0;points=[[0,0.5],[1,0.5]];portConstraint=eastwest;whiteSpace=wrap;html=1;" vertex="1" parent="62VbcutX-p3DtVlxZNno-1">
          <mxGeometry y="26" width="160" height="26" as="geometry" />
        </mxCell>
        <mxCell id="62VbcutX-p3DtVlxZNno-5" value="output : int" style="text;strokeColor=none;fillColor=none;align=left;verticalAlign=top;spacingLeft=4;spacingRight=4;overflow=hidden;rotatable=0;points=[[0,0.5],[1,0.5]];portConstraint=eastwest;whiteSpace=wrap;html=1;" vertex="1" parent="62VbcutX-p3DtVlxZNno-1">
          <mxGeometry y="52" width="160" height="26" as="geometry" />
        </mxCell>
        <mxCell id="62VbcutX-p3DtVlxZNno-3" value="" style="line;strokeWidth=1;fillColor=none;align=left;verticalAlign=middle;spacingTop=-1;spacingLeft=3;spacingRight=3;rotatable=0;labelPosition=right;points=[];portConstraint=eastwest;strokeColor=inherit;" vertex="1" parent="62VbcutX-p3DtVlxZNno-1">
          <mxGeometry y="78" width="160" height="8" as="geometry" />
        </mxCell>
        <mxCell id="62VbcutX-p3DtVlxZNno-4" value="Context(String input)" style="text;strokeColor=none;fillColor=none;align=left;verticalAlign=top;spacingLeft=4;spacingRight=4;overflow=hidden;rotatable=0;points=[[0,0.5],[1,0.5]];portConstraint=eastwest;whiteSpace=wrap;html=1;" vertex="1" parent="62VbcutX-p3DtVlxZNno-1">
          <mxGeometry y="86" width="160" height="26" as="geometry" />
        </mxCell>
        <mxCell id="62VbcutX-p3DtVlxZNno-6" value="getinput():String" style="text;strokeColor=none;fillColor=none;align=left;verticalAlign=top;spacingLeft=4;spacingRight=4;overflow=hidden;rotatable=0;points=[[0,0.5],[1,0.5]];portConstraint=eastwest;whiteSpace=wrap;html=1;" vertex="1" parent="62VbcutX-p3DtVlxZNno-1">
          <mxGeometry y="112" width="160" height="26" as="geometry" />
        </mxCell>
        <mxCell id="62VbcutX-p3DtVlxZNno-7" value="setInput(String input)" style="text;strokeColor=none;fillColor=none;align=left;verticalAlign=top;spacingLeft=4;spacingRight=4;overflow=hidden;rotatable=0;points=[[0,0.5],[1,0.5]];portConstraint=eastwest;whiteSpace=wrap;html=1;" vertex="1" parent="62VbcutX-p3DtVlxZNno-1">
          <mxGeometry y="138" width="160" height="26" as="geometry" />
        </mxCell>
        <mxCell id="62VbcutX-p3DtVlxZNno-8" value="getOutput():int" style="text;strokeColor=none;fillColor=none;align=left;verticalAlign=top;spacingLeft=4;spacingRight=4;overflow=hidden;rotatable=0;points=[[0,0.5],[1,0.5]];portConstraint=eastwest;whiteSpace=wrap;html=1;" vertex="1" parent="62VbcutX-p3DtVlxZNno-1">
          <mxGeometry y="164" width="160" height="26" as="geometry" />
        </mxCell>
        <mxCell id="62VbcutX-p3DtVlxZNno-9" value="setOutput(int output)" style="text;strokeColor=none;fillColor=none;align=left;verticalAlign=top;spacingLeft=4;spacingRight=4;overflow=hidden;rotatable=0;points=[[0,0.5],[1,0.5]];portConstraint=eastwest;whiteSpace=wrap;html=1;" vertex="1" parent="62VbcutX-p3DtVlxZNno-1">
          <mxGeometry y="190" width="160" height="26" as="geometry" />
        </mxCell>
        <mxCell id="62VbcutX-p3DtVlxZNno-10" value="Interpreter" style="swimlane;fontStyle=1;align=center;verticalAlign=top;childLayout=stackLayout;horizontal=1;startSize=26;horizontalStack=0;resizeParent=1;resizeParentMax=0;resizeLast=0;collapsible=1;marginBottom=0;whiteSpace=wrap;html=1;" vertex="1" parent="1">
          <mxGeometry x="265" y="200" width="220" height="112" as="geometry" />
        </mxCell>
        <mxCell id="62VbcutX-p3DtVlxZNno-11" value="expression :arraylist" style="text;strokeColor=none;fillColor=none;align=left;verticalAlign=top;spacingLeft=4;spacingRight=4;overflow=hidden;rotatable=0;points=[[0,0.5],[1,0.5]];portConstraint=eastwest;whiteSpace=wrap;html=1;" vertex="1" parent="62VbcutX-p3DtVlxZNno-10">
          <mxGeometry y="26" width="220" height="26" as="geometry" />
        </mxCell>
        <mxCell id="62VbcutX-p3DtVlxZNno-12" value="" style="line;strokeWidth=1;fillColor=none;align=left;verticalAlign=middle;spacingTop=-1;spacingLeft=3;spacingRight=3;rotatable=0;labelPosition=right;points=[];portConstraint=eastwest;strokeColor=inherit;" vertex="1" parent="62VbcutX-p3DtVlxZNno-10">
          <mxGeometry y="52" width="220" height="8" as="geometry" />
        </mxCell>
        <mxCell id="62VbcutX-p3DtVlxZNno-13" value="interpreter()" style="text;strokeColor=none;fillColor=none;align=left;verticalAlign=top;spacingLeft=4;spacingRight=4;overflow=hidden;rotatable=0;points=[[0,0.5],[1,0.5]];portConstraint=eastwest;whiteSpace=wrap;html=1;" vertex="1" parent="62VbcutX-p3DtVlxZNno-10">
          <mxGeometry y="60" width="220" height="26" as="geometry" />
        </mxCell>
        <mxCell id="62VbcutX-p3DtVlxZNno-14" value="getExpression(char key) : Expression" style="text;strokeColor=none;fillColor=none;align=left;verticalAlign=top;spacingLeft=4;spacingRight=4;overflow=hidden;rotatable=0;points=[[0,0.5],[1,0.5]];portConstraint=eastwest;whiteSpace=wrap;html=1;" vertex="1" parent="62VbcutX-p3DtVlxZNno-10">
          <mxGeometry y="86" width="220" height="26" as="geometry" />
        </mxCell>
        <mxCell id="62VbcutX-p3DtVlxZNno-15" value="Calculator" style="swimlane;fontStyle=1;align=center;verticalAlign=top;childLayout=stackLayout;horizontal=1;startSize=26;horizontalStack=0;resizeParent=1;resizeParentMax=0;resizeLast=0;collapsible=1;marginBottom=0;whiteSpace=wrap;html=1;" vertex="1" parent="1">
          <mxGeometry x="120" y="680" width="210" height="112" as="geometry" />
        </mxCell>
        <mxCell id="62VbcutX-p3DtVlxZNno-16" value="Interpreter: Interpreter" style="text;strokeColor=none;fillColor=none;align=left;verticalAlign=top;spacingLeft=4;spacingRight=4;overflow=hidden;rotatable=0;points=[[0,0.5],[1,0.5]];portConstraint=eastwest;whiteSpace=wrap;html=1;" vertex="1" parent="62VbcutX-p3DtVlxZNno-15">
          <mxGeometry y="26" width="210" height="26" as="geometry" />
        </mxCell>
        <mxCell id="62VbcutX-p3DtVlxZNno-17" value="" style="line;strokeWidth=1;fillColor=none;align=left;verticalAlign=middle;spacingTop=-1;spacingLeft=3;spacingRight=3;rotatable=0;labelPosition=right;points=[];portConstraint=eastwest;strokeColor=inherit;" vertex="1" parent="62VbcutX-p3DtVlxZNno-15">
          <mxGeometry y="52" width="210" height="8" as="geometry" />
        </mxCell>
        <mxCell id="62VbcutX-p3DtVlxZNno-18" value="Calculateor(Interpreter interpreter)" style="text;strokeColor=none;fillColor=none;align=left;verticalAlign=top;spacingLeft=4;spacingRight=4;overflow=hidden;rotatable=0;points=[[0,0.5],[1,0.5]];portConstraint=eastwest;whiteSpace=wrap;html=1;" vertex="1" parent="62VbcutX-p3DtVlxZNno-15">
          <mxGeometry y="60" width="210" height="26" as="geometry" />
        </mxCell>
        <mxCell id="62VbcutX-p3DtVlxZNno-19" value="evaluate(String expression) : int" style="text;strokeColor=none;fillColor=none;align=left;verticalAlign=top;spacingLeft=4;spacingRight=4;overflow=hidden;rotatable=0;points=[[0,0.5],[1,0.5]];portConstraint=eastwest;whiteSpace=wrap;html=1;" vertex="1" parent="62VbcutX-p3DtVlxZNno-15">
          <mxGeometry y="86" width="210" height="26" as="geometry" />
        </mxCell>
        <mxCell id="62VbcutX-p3DtVlxZNno-20" value="NumberExpression" style="swimlane;fontStyle=1;align=center;verticalAlign=top;childLayout=stackLayout;horizontal=1;startSize=26;horizontalStack=0;resizeParent=1;resizeParentMax=0;resizeLast=0;collapsible=1;marginBottom=0;whiteSpace=wrap;html=1;" vertex="1" parent="1">
          <mxGeometry x="460" y="680" width="210" height="112" as="geometry" />
        </mxCell>
        <mxCell id="62VbcutX-p3DtVlxZNno-21" value="number:int" style="text;strokeColor=none;fillColor=none;align=left;verticalAlign=top;spacingLeft=4;spacingRight=4;overflow=hidden;rotatable=0;points=[[0,0.5],[1,0.5]];portConstraint=eastwest;whiteSpace=wrap;html=1;" vertex="1" parent="62VbcutX-p3DtVlxZNno-20">
          <mxGeometry y="26" width="210" height="26" as="geometry" />
        </mxCell>
        <mxCell id="62VbcutX-p3DtVlxZNno-22" value="" style="line;strokeWidth=1;fillColor=none;align=left;verticalAlign=middle;spacingTop=-1;spacingLeft=3;spacingRight=3;rotatable=0;labelPosition=right;points=[];portConstraint=eastwest;strokeColor=inherit;" vertex="1" parent="62VbcutX-p3DtVlxZNno-20">
          <mxGeometry y="52" width="210" height="8" as="geometry" />
        </mxCell>
        <mxCell id="62VbcutX-p3DtVlxZNno-23" value="NumberExpression(int number)" style="text;strokeColor=none;fillColor=none;align=left;verticalAlign=top;spacingLeft=4;spacingRight=4;overflow=hidden;rotatable=0;points=[[0,0.5],[1,0.5]];portConstraint=eastwest;whiteSpace=wrap;html=1;" vertex="1" parent="62VbcutX-p3DtVlxZNno-20">
          <mxGeometry y="60" width="210" height="26" as="geometry" />
        </mxCell>
        <mxCell id="62VbcutX-p3DtVlxZNno-24" value="interpreter(Context context)" style="text;strokeColor=none;fillColor=none;align=left;verticalAlign=top;spacingLeft=4;spacingRight=4;overflow=hidden;rotatable=0;points=[[0,0.5],[1,0.5]];portConstraint=eastwest;whiteSpace=wrap;html=1;" vertex="1" parent="62VbcutX-p3DtVlxZNno-20">
          <mxGeometry y="86" width="210" height="26" as="geometry" />
        </mxCell>
        <mxCell id="62VbcutX-p3DtVlxZNno-25" value="AddExpression" style="swimlane;fontStyle=1;align=center;verticalAlign=top;childLayout=stackLayout;horizontal=1;startSize=26;horizontalStack=0;resizeParent=1;resizeParentMax=0;resizeLast=0;collapsible=1;marginBottom=0;whiteSpace=wrap;html=1;" vertex="1" parent="1">
          <mxGeometry x="730" y="680" width="380" height="138" as="geometry" />
        </mxCell>
        <mxCell id="62VbcutX-p3DtVlxZNno-26" value="leftExpression:Expression" style="text;strokeColor=none;fillColor=none;align=left;verticalAlign=top;spacingLeft=4;spacingRight=4;overflow=hidden;rotatable=0;points=[[0,0.5],[1,0.5]];portConstraint=eastwest;whiteSpace=wrap;html=1;" vertex="1" parent="62VbcutX-p3DtVlxZNno-25">
          <mxGeometry y="26" width="380" height="26" as="geometry" />
        </mxCell>
        <mxCell id="62VbcutX-p3DtVlxZNno-30" value="RightExpression:Expression" style="text;strokeColor=none;fillColor=none;align=left;verticalAlign=top;spacingLeft=4;spacingRight=4;overflow=hidden;rotatable=0;points=[[0,0.5],[1,0.5]];portConstraint=eastwest;whiteSpace=wrap;html=1;" vertex="1" parent="62VbcutX-p3DtVlxZNno-25">
          <mxGeometry y="52" width="380" height="26" as="geometry" />
        </mxCell>
        <mxCell id="62VbcutX-p3DtVlxZNno-27" value="" style="line;strokeWidth=1;fillColor=none;align=left;verticalAlign=middle;spacingTop=-1;spacingLeft=3;spacingRight=3;rotatable=0;labelPosition=right;points=[];portConstraint=eastwest;strokeColor=inherit;" vertex="1" parent="62VbcutX-p3DtVlxZNno-25">
          <mxGeometry y="78" width="380" height="8" as="geometry" />
        </mxCell>
        <mxCell id="62VbcutX-p3DtVlxZNno-28" value="AddExpression(Expression left , Expression right expression" style="text;strokeColor=none;fillColor=none;align=left;verticalAlign=top;spacingLeft=4;spacingRight=4;overflow=hidden;rotatable=0;points=[[0,0.5],[1,0.5]];portConstraint=eastwest;whiteSpace=wrap;html=1;" vertex="1" parent="62VbcutX-p3DtVlxZNno-25">
          <mxGeometry y="86" width="380" height="26" as="geometry" />
        </mxCell>
        <mxCell id="62VbcutX-p3DtVlxZNno-29" value="interpreter(Context context)" style="text;strokeColor=none;fillColor=none;align=left;verticalAlign=top;spacingLeft=4;spacingRight=4;overflow=hidden;rotatable=0;points=[[0,0.5],[1,0.5]];portConstraint=eastwest;whiteSpace=wrap;html=1;" vertex="1" parent="62VbcutX-p3DtVlxZNno-25">
          <mxGeometry y="112" width="380" height="26" as="geometry" />
        </mxCell>
        <mxCell id="62VbcutX-p3DtVlxZNno-31" value="SubstractExpression" style="swimlane;fontStyle=1;align=center;verticalAlign=top;childLayout=stackLayout;horizontal=1;startSize=26;horizontalStack=0;resizeParent=1;resizeParentMax=0;resizeLast=0;collapsible=1;marginBottom=0;whiteSpace=wrap;html=1;" vertex="1" parent="1">
          <mxGeometry x="1130" y="680" width="470" height="138" as="geometry" />
        </mxCell>
        <mxCell id="62VbcutX-p3DtVlxZNno-32" value="leftExpression:Expression" style="text;strokeColor=none;fillColor=none;align=left;verticalAlign=top;spacingLeft=4;spacingRight=4;overflow=hidden;rotatable=0;points=[[0,0.5],[1,0.5]];portConstraint=eastwest;whiteSpace=wrap;html=1;" vertex="1" parent="62VbcutX-p3DtVlxZNno-31">
          <mxGeometry y="26" width="470" height="26" as="geometry" />
        </mxCell>
        <mxCell id="62VbcutX-p3DtVlxZNno-33" value="RightExpression:Expression" style="text;strokeColor=none;fillColor=none;align=left;verticalAlign=top;spacingLeft=4;spacingRight=4;overflow=hidden;rotatable=0;points=[[0,0.5],[1,0.5]];portConstraint=eastwest;whiteSpace=wrap;html=1;" vertex="1" parent="62VbcutX-p3DtVlxZNno-31">
          <mxGeometry y="52" width="470" height="26" as="geometry" />
        </mxCell>
        <mxCell id="62VbcutX-p3DtVlxZNno-34" value="" style="line;strokeWidth=1;fillColor=none;align=left;verticalAlign=middle;spacingTop=-1;spacingLeft=3;spacingRight=3;rotatable=0;labelPosition=right;points=[];portConstraint=eastwest;strokeColor=inherit;" vertex="1" parent="62VbcutX-p3DtVlxZNno-31">
          <mxGeometry y="78" width="470" height="8" as="geometry" />
        </mxCell>
        <mxCell id="62VbcutX-p3DtVlxZNno-35" value="SubstractExpression(Expression left , Expression right expression" style="text;strokeColor=none;fillColor=none;align=left;verticalAlign=top;spacingLeft=4;spacingRight=4;overflow=hidden;rotatable=0;points=[[0,0.5],[1,0.5]];portConstraint=eastwest;whiteSpace=wrap;html=1;" vertex="1" parent="62VbcutX-p3DtVlxZNno-31">
          <mxGeometry y="86" width="470" height="26" as="geometry" />
        </mxCell>
        <mxCell id="62VbcutX-p3DtVlxZNno-36" value="interpreter(Context context)" style="text;strokeColor=none;fillColor=none;align=left;verticalAlign=top;spacingLeft=4;spacingRight=4;overflow=hidden;rotatable=0;points=[[0,0.5],[1,0.5]];portConstraint=eastwest;whiteSpace=wrap;html=1;" vertex="1" parent="62VbcutX-p3DtVlxZNno-31">
          <mxGeometry y="112" width="470" height="26" as="geometry" />
        </mxCell>
        <mxCell id="62VbcutX-p3DtVlxZNno-37" value="MultiplyExpression" style="swimlane;fontStyle=1;align=center;verticalAlign=top;childLayout=stackLayout;horizontal=1;startSize=26;horizontalStack=0;resizeParent=1;resizeParentMax=0;resizeLast=0;collapsible=1;marginBottom=0;whiteSpace=wrap;html=1;" vertex="1" parent="1">
          <mxGeometry x="1630" y="680" width="470" height="138" as="geometry" />
        </mxCell>
        <mxCell id="62VbcutX-p3DtVlxZNno-38" value="leftExpression:Expression" style="text;strokeColor=none;fillColor=none;align=left;verticalAlign=top;spacingLeft=4;spacingRight=4;overflow=hidden;rotatable=0;points=[[0,0.5],[1,0.5]];portConstraint=eastwest;whiteSpace=wrap;html=1;" vertex="1" parent="62VbcutX-p3DtVlxZNno-37">
          <mxGeometry y="26" width="470" height="26" as="geometry" />
        </mxCell>
        <mxCell id="62VbcutX-p3DtVlxZNno-39" value="RightExpression:Expression" style="text;strokeColor=none;fillColor=none;align=left;verticalAlign=top;spacingLeft=4;spacingRight=4;overflow=hidden;rotatable=0;points=[[0,0.5],[1,0.5]];portConstraint=eastwest;whiteSpace=wrap;html=1;" vertex="1" parent="62VbcutX-p3DtVlxZNno-37">
          <mxGeometry y="52" width="470" height="26" as="geometry" />
        </mxCell>
        <mxCell id="62VbcutX-p3DtVlxZNno-40" value="" style="line;strokeWidth=1;fillColor=none;align=left;verticalAlign=middle;spacingTop=-1;spacingLeft=3;spacingRight=3;rotatable=0;labelPosition=right;points=[];portConstraint=eastwest;strokeColor=inherit;" vertex="1" parent="62VbcutX-p3DtVlxZNno-37">
          <mxGeometry y="78" width="470" height="8" as="geometry" />
        </mxCell>
        <mxCell id="62VbcutX-p3DtVlxZNno-41" value="MultiplyExpression(Expression left , Expression right expression" style="text;strokeColor=none;fillColor=none;align=left;verticalAlign=top;spacingLeft=4;spacingRight=4;overflow=hidden;rotatable=0;points=[[0,0.5],[1,0.5]];portConstraint=eastwest;whiteSpace=wrap;html=1;" vertex="1" parent="62VbcutX-p3DtVlxZNno-37">
          <mxGeometry y="86" width="470" height="26" as="geometry" />
        </mxCell>
        <mxCell id="62VbcutX-p3DtVlxZNno-42" value="interpreter(Context context)" style="text;strokeColor=none;fillColor=none;align=left;verticalAlign=top;spacingLeft=4;spacingRight=4;overflow=hidden;rotatable=0;points=[[0,0.5],[1,0.5]];portConstraint=eastwest;whiteSpace=wrap;html=1;" vertex="1" parent="62VbcutX-p3DtVlxZNno-37">
          <mxGeometry y="112" width="470" height="26" as="geometry" />
        </mxCell>
        <mxCell id="62VbcutX-p3DtVlxZNno-43" value="DivideExpression" style="swimlane;fontStyle=1;align=center;verticalAlign=top;childLayout=stackLayout;horizontal=1;startSize=26;horizontalStack=0;resizeParent=1;resizeParentMax=0;resizeLast=0;collapsible=1;marginBottom=0;whiteSpace=wrap;html=1;" vertex="1" parent="1">
          <mxGeometry x="2130" y="680" width="470" height="138" as="geometry" />
        </mxCell>
        <mxCell id="62VbcutX-p3DtVlxZNno-44" value="leftExpression:Expression" style="text;strokeColor=none;fillColor=none;align=left;verticalAlign=top;spacingLeft=4;spacingRight=4;overflow=hidden;rotatable=0;points=[[0,0.5],[1,0.5]];portConstraint=eastwest;whiteSpace=wrap;html=1;" vertex="1" parent="62VbcutX-p3DtVlxZNno-43">
          <mxGeometry y="26" width="470" height="26" as="geometry" />
        </mxCell>
        <mxCell id="62VbcutX-p3DtVlxZNno-45" value="RightExpression:Expression" style="text;strokeColor=none;fillColor=none;align=left;verticalAlign=top;spacingLeft=4;spacingRight=4;overflow=hidden;rotatable=0;points=[[0,0.5],[1,0.5]];portConstraint=eastwest;whiteSpace=wrap;html=1;" vertex="1" parent="62VbcutX-p3DtVlxZNno-43">
          <mxGeometry y="52" width="470" height="26" as="geometry" />
        </mxCell>
        <mxCell id="62VbcutX-p3DtVlxZNno-46" value="" style="line;strokeWidth=1;fillColor=none;align=left;verticalAlign=middle;spacingTop=-1;spacingLeft=3;spacingRight=3;rotatable=0;labelPosition=right;points=[];portConstraint=eastwest;strokeColor=inherit;" vertex="1" parent="62VbcutX-p3DtVlxZNno-43">
          <mxGeometry y="78" width="470" height="8" as="geometry" />
        </mxCell>
        <mxCell id="62VbcutX-p3DtVlxZNno-47" value="DivideExpression(Expression left , Expression right expression" style="text;strokeColor=none;fillColor=none;align=left;verticalAlign=top;spacingLeft=4;spacingRight=4;overflow=hidden;rotatable=0;points=[[0,0.5],[1,0.5]];portConstraint=eastwest;whiteSpace=wrap;html=1;" vertex="1" parent="62VbcutX-p3DtVlxZNno-43">
          <mxGeometry y="86" width="470" height="26" as="geometry" />
        </mxCell>
        <mxCell id="62VbcutX-p3DtVlxZNno-48" value="interpreter(Context context)" style="text;strokeColor=none;fillColor=none;align=left;verticalAlign=top;spacingLeft=4;spacingRight=4;overflow=hidden;rotatable=0;points=[[0,0.5],[1,0.5]];portConstraint=eastwest;whiteSpace=wrap;html=1;" vertex="1" parent="62VbcutX-p3DtVlxZNno-43">
          <mxGeometry y="112" width="470" height="26" as="geometry" />
        </mxCell>
        <mxCell id="62VbcutX-p3DtVlxZNno-49" value="EqualExpression" style="swimlane;fontStyle=1;align=center;verticalAlign=top;childLayout=stackLayout;horizontal=1;startSize=26;horizontalStack=0;resizeParent=1;resizeParentMax=0;resizeLast=0;collapsible=1;marginBottom=0;whiteSpace=wrap;html=1;" vertex="1" parent="1">
          <mxGeometry x="2680" y="680" width="160" height="60" as="geometry" />
        </mxCell>
        <mxCell id="62VbcutX-p3DtVlxZNno-51" value="" style="line;strokeWidth=1;fillColor=none;align=left;verticalAlign=middle;spacingTop=-1;spacingLeft=3;spacingRight=3;rotatable=0;labelPosition=right;points=[];portConstraint=eastwest;strokeColor=inherit;" vertex="1" parent="62VbcutX-p3DtVlxZNno-49">
          <mxGeometry y="26" width="160" height="8" as="geometry" />
        </mxCell>
        <mxCell id="62VbcutX-p3DtVlxZNno-52" value="interpret(Context context)" style="text;strokeColor=none;fillColor=none;align=left;verticalAlign=top;spacingLeft=4;spacingRight=4;overflow=hidden;rotatable=0;points=[[0,0.5],[1,0.5]];portConstraint=eastwest;whiteSpace=wrap;html=1;" vertex="1" parent="62VbcutX-p3DtVlxZNno-49">
          <mxGeometry y="34" width="160" height="26" as="geometry" />
        </mxCell>
        <mxCell id="62VbcutX-p3DtVlxZNno-53" value="OpenParantisesExpression" style="swimlane;fontStyle=1;align=center;verticalAlign=top;childLayout=stackLayout;horizontal=1;startSize=26;horizontalStack=0;resizeParent=1;resizeParentMax=0;resizeLast=0;collapsible=1;marginBottom=0;whiteSpace=wrap;html=1;" vertex="1" parent="1">
          <mxGeometry x="3050" y="680" width="200" height="60" as="geometry" />
        </mxCell>
        <mxCell id="62VbcutX-p3DtVlxZNno-54" value="" style="line;strokeWidth=1;fillColor=none;align=left;verticalAlign=middle;spacingTop=-1;spacingLeft=3;spacingRight=3;rotatable=0;labelPosition=right;points=[];portConstraint=eastwest;strokeColor=inherit;" vertex="1" parent="62VbcutX-p3DtVlxZNno-53">
          <mxGeometry y="26" width="200" height="8" as="geometry" />
        </mxCell>
        <mxCell id="62VbcutX-p3DtVlxZNno-55" value="interpret(Context context)" style="text;strokeColor=none;fillColor=none;align=left;verticalAlign=top;spacingLeft=4;spacingRight=4;overflow=hidden;rotatable=0;points=[[0,0.5],[1,0.5]];portConstraint=eastwest;whiteSpace=wrap;html=1;" vertex="1" parent="62VbcutX-p3DtVlxZNno-53">
          <mxGeometry y="34" width="200" height="26" as="geometry" />
        </mxCell>
        <mxCell id="62VbcutX-p3DtVlxZNno-56" value="CloseParantisesExpression" style="swimlane;fontStyle=1;align=center;verticalAlign=top;childLayout=stackLayout;horizontal=1;startSize=26;horizontalStack=0;resizeParent=1;resizeParentMax=0;resizeLast=0;collapsible=1;marginBottom=0;whiteSpace=wrap;html=1;" vertex="1" parent="1">
          <mxGeometry x="3270" y="680" width="200" height="60" as="geometry" />
        </mxCell>
        <mxCell id="62VbcutX-p3DtVlxZNno-57" value="" style="line;strokeWidth=1;fillColor=none;align=left;verticalAlign=middle;spacingTop=-1;spacingLeft=3;spacingRight=3;rotatable=0;labelPosition=right;points=[];portConstraint=eastwest;strokeColor=inherit;" vertex="1" parent="62VbcutX-p3DtVlxZNno-56">
          <mxGeometry y="26" width="200" height="8" as="geometry" />
        </mxCell>
        <mxCell id="62VbcutX-p3DtVlxZNno-58" value="interpret(Context context)" style="text;strokeColor=none;fillColor=none;align=left;verticalAlign=top;spacingLeft=4;spacingRight=4;overflow=hidden;rotatable=0;points=[[0,0.5],[1,0.5]];portConstraint=eastwest;whiteSpace=wrap;html=1;" vertex="1" parent="62VbcutX-p3DtVlxZNno-56">
          <mxGeometry y="34" width="200" height="26" as="geometry" />
        </mxCell>
        <mxCell id="62VbcutX-p3DtVlxZNno-59" value="DecimalExpression" style="swimlane;fontStyle=1;align=center;verticalAlign=top;childLayout=stackLayout;horizontal=1;startSize=26;horizontalStack=0;resizeParent=1;resizeParentMax=0;resizeLast=0;collapsible=1;marginBottom=0;whiteSpace=wrap;html=1;" vertex="1" parent="1">
          <mxGeometry x="2860" y="680" width="160" height="60" as="geometry" />
        </mxCell>
        <mxCell id="62VbcutX-p3DtVlxZNno-60" value="" style="line;strokeWidth=1;fillColor=none;align=left;verticalAlign=middle;spacingTop=-1;spacingLeft=3;spacingRight=3;rotatable=0;labelPosition=right;points=[];portConstraint=eastwest;strokeColor=inherit;" vertex="1" parent="62VbcutX-p3DtVlxZNno-59">
          <mxGeometry y="26" width="160" height="8" as="geometry" />
        </mxCell>
        <mxCell id="62VbcutX-p3DtVlxZNno-61" value="interpret(Context context)" style="text;strokeColor=none;fillColor=none;align=left;verticalAlign=top;spacingLeft=4;spacingRight=4;overflow=hidden;rotatable=0;points=[[0,0.5],[1,0.5]];portConstraint=eastwest;whiteSpace=wrap;html=1;" vertex="1" parent="62VbcutX-p3DtVlxZNno-59">
          <mxGeometry y="34" width="160" height="26" as="geometry" />
        </mxCell>
        <mxCell id="62VbcutX-p3DtVlxZNno-62" value="Expression" style="swimlane;fontStyle=1;align=center;verticalAlign=top;childLayout=stackLayout;horizontal=1;startSize=26;horizontalStack=0;resizeParent=1;resizeParentMax=0;resizeLast=0;collapsible=1;marginBottom=0;whiteSpace=wrap;html=1;" vertex="1" parent="1">
          <mxGeometry x="1630" y="340" width="160" height="60" as="geometry" />
        </mxCell>
        <mxCell id="62VbcutX-p3DtVlxZNno-64" value="" style="line;strokeWidth=1;fillColor=none;align=left;verticalAlign=middle;spacingTop=-1;spacingLeft=3;spacingRight=3;rotatable=0;labelPosition=right;points=[];portConstraint=eastwest;strokeColor=inherit;" vertex="1" parent="62VbcutX-p3DtVlxZNno-62">
          <mxGeometry y="26" width="160" height="8" as="geometry" />
        </mxCell>
        <mxCell id="62VbcutX-p3DtVlxZNno-65" value="interpreter(Context contex)" style="text;strokeColor=none;fillColor=none;align=left;verticalAlign=top;spacingLeft=4;spacingRight=4;overflow=hidden;rotatable=0;points=[[0,0.5],[1,0.5]];portConstraint=eastwest;whiteSpace=wrap;html=1;" vertex="1" parent="62VbcutX-p3DtVlxZNno-62">
          <mxGeometry y="34" width="160" height="26" as="geometry" />
        </mxCell>
        <mxCell id="62VbcutX-p3DtVlxZNno-67" value="" style="endArrow=block;dashed=1;endFill=0;endSize=12;html=1;rounded=0;exitX=0.803;exitY=-0.009;exitDx=0;exitDy=0;exitPerimeter=0;entryX=0;entryY=0.5;entryDx=0;entryDy=0;" edge="1" parent="1" source="62VbcutX-p3DtVlxZNno-15" target="62VbcutX-p3DtVlxZNno-65">
          <mxGeometry width="160" relative="1" as="geometry">
            <mxPoint x="350" y="520" as="sourcePoint" />
            <mxPoint x="510" y="520" as="targetPoint" />
          </mxGeometry>
        </mxCell>
        <mxCell id="62VbcutX-p3DtVlxZNno-68" value="" style="endArrow=block;dashed=1;endFill=0;endSize=12;html=1;rounded=0;exitX=0.631;exitY=-0.029;exitDx=0;exitDy=0;exitPerimeter=0;entryX=0.13;entryY=1.049;entryDx=0;entryDy=0;entryPerimeter=0;" edge="1" parent="1" source="62VbcutX-p3DtVlxZNno-20" target="62VbcutX-p3DtVlxZNno-65">
          <mxGeometry width="160" relative="1" as="geometry">
            <mxPoint x="299" y="689" as="sourcePoint" />
            <mxPoint x="1640" y="397" as="targetPoint" />
          </mxGeometry>
        </mxCell>
        <mxCell id="62VbcutX-p3DtVlxZNno-69" value="" style="endArrow=block;dashed=1;endFill=0;endSize=12;html=1;rounded=0;exitX=0.5;exitY=0;exitDx=0;exitDy=0;entryX=0.287;entryY=1.181;entryDx=0;entryDy=0;entryPerimeter=0;" edge="1" parent="1" source="62VbcutX-p3DtVlxZNno-25" target="62VbcutX-p3DtVlxZNno-65">
          <mxGeometry width="160" relative="1" as="geometry">
            <mxPoint x="603" y="687" as="sourcePoint" />
            <mxPoint x="1661" y="411" as="targetPoint" />
          </mxGeometry>
        </mxCell>
        <mxCell id="62VbcutX-p3DtVlxZNno-70" value="" style="endArrow=block;dashed=1;endFill=0;endSize=12;html=1;rounded=0;exitX=0.476;exitY=-0.007;exitDx=0;exitDy=0;entryX=0.43;entryY=1.181;entryDx=0;entryDy=0;entryPerimeter=0;exitPerimeter=0;" edge="1" parent="1" source="62VbcutX-p3DtVlxZNno-31" target="62VbcutX-p3DtVlxZNno-65">
          <mxGeometry width="160" relative="1" as="geometry">
            <mxPoint x="930" y="690" as="sourcePoint" />
            <mxPoint x="1686" y="415" as="targetPoint" />
          </mxGeometry>
        </mxCell>
        <mxCell id="62VbcutX-p3DtVlxZNno-71" value="" style="endArrow=block;dashed=1;endFill=0;endSize=12;html=1;rounded=0;exitX=0.25;exitY=0;exitDx=0;exitDy=0;entryX=0.587;entryY=1.137;entryDx=0;entryDy=0;entryPerimeter=0;" edge="1" parent="1" source="62VbcutX-p3DtVlxZNno-37" target="62VbcutX-p3DtVlxZNno-65">
          <mxGeometry width="160" relative="1" as="geometry">
            <mxPoint x="1364" y="689" as="sourcePoint" />
            <mxPoint x="1709" y="415" as="targetPoint" />
          </mxGeometry>
        </mxCell>
        <mxCell id="62VbcutX-p3DtVlxZNno-72" value="" style="endArrow=block;dashed=1;endFill=0;endSize=12;html=1;rounded=0;exitX=0.25;exitY=0;exitDx=0;exitDy=0;entryX=0.688;entryY=1.181;entryDx=0;entryDy=0;entryPerimeter=0;" edge="1" parent="1" source="62VbcutX-p3DtVlxZNno-43" target="62VbcutX-p3DtVlxZNno-65">
          <mxGeometry width="160" relative="1" as="geometry">
            <mxPoint x="1758" y="690" as="sourcePoint" />
            <mxPoint x="1734" y="414" as="targetPoint" />
          </mxGeometry>
        </mxCell>
        <mxCell id="62VbcutX-p3DtVlxZNno-73" value="" style="endArrow=block;dashed=1;endFill=0;endSize=12;html=1;rounded=0;exitX=0.568;exitY=-0.017;exitDx=0;exitDy=0;entryX=0.98;entryY=1.137;entryDx=0;entryDy=0;entryPerimeter=0;exitPerimeter=0;" edge="1" parent="1" source="62VbcutX-p3DtVlxZNno-49" target="62VbcutX-p3DtVlxZNno-65">
          <mxGeometry width="160" relative="1" as="geometry">
            <mxPoint x="2258" y="690" as="sourcePoint" />
            <mxPoint x="1750" y="415" as="targetPoint" />
          </mxGeometry>
        </mxCell>
        <mxCell id="62VbcutX-p3DtVlxZNno-74" value="" style="endArrow=block;dashed=1;endFill=0;endSize=12;html=1;rounded=0;exitX=0.364;exitY=-0.055;exitDx=0;exitDy=0;entryX=1;entryY=0.5;entryDx=0;entryDy=0;exitPerimeter=0;" edge="1" parent="1" source="62VbcutX-p3DtVlxZNno-59" target="62VbcutX-p3DtVlxZNno-65">
          <mxGeometry width="160" relative="1" as="geometry">
            <mxPoint x="2781" y="689" as="sourcePoint" />
            <mxPoint x="1797" y="414" as="targetPoint" />
          </mxGeometry>
        </mxCell>
        <mxCell id="62VbcutX-p3DtVlxZNno-75" value="" style="endArrow=block;dashed=1;endFill=0;endSize=12;html=1;rounded=0;exitX=0.207;exitY=-0.055;exitDx=0;exitDy=0;entryX=1.023;entryY=0.126;entryDx=0;entryDy=0;entryPerimeter=0;exitPerimeter=0;" edge="1" parent="1" source="62VbcutX-p3DtVlxZNno-56" target="62VbcutX-p3DtVlxZNno-65">
          <mxGeometry width="160" relative="1" as="geometry">
            <mxPoint x="2928" y="687" as="sourcePoint" />
            <mxPoint x="1800" y="397" as="targetPoint" />
          </mxGeometry>
        </mxCell>
        <mxCell id="62VbcutX-p3DtVlxZNno-76" value="" style="endArrow=block;dashed=1;endFill=0;endSize=12;html=1;rounded=0;exitX=0.5;exitY=0;exitDx=0;exitDy=0;entryX=1.023;entryY=0.126;entryDx=0;entryDy=0;entryPerimeter=0;" edge="1" parent="1">
          <mxGeometry width="160" relative="1" as="geometry">
            <mxPoint x="3160" y="690" as="sourcePoint" />
            <mxPoint x="1804" y="387" as="targetPoint" />
          </mxGeometry>
        </mxCell>
      </root>
    </mxGraphModel>
  </diagram>
</mxfile>
